# xmcd CD database file
#
# Track frame offsets:
#	150
#	19164
#	48325
#	70433
#	84022
#	104676
#	123334
#	141239
#	162493
#	180635
#	205644
#	224388
#
# Disc length: 3263 seconds
#
# Revision: 0
# Processed by: cddbd v1.5.2PL0 Copyright (c) Steve Scherf et al.
# Submitted via: CDex 1.51
#
DISCID=aa0cbd0c
DTITLE=Simply Red - Farewell CD1
DYEAR=2010
DGENRE=Blues
TTITLE0=Come To My Aid
TTITLE1=Sad Old Red
TTITLE2=The Right Thing
TTITLE3=Every Time We Say Goodbye
TTITLE4=It's Only Love
TTITLE5=A New Flame
TTITLE6=If You Don't Know Me By Now
TTITLE7=For Your Babies
TTITLE8=Your Mirror
TTITLE9=Thrill Me
TTITLE10=Stars
TTITLE11=Never Never Love
EXTD=YEAR: 2010
EXTT0=
EXTT1=
EXTT2=
EXTT3=
EXTT4=
EXTT5=
EXTT6=
EXTT7=
EXTT8=
EXTT9=
EXTT10=
EXTT11=
PLAYORDER=
